<svg xmlns="http://www.w3.org/2000/svg" viewBox="0 0 240 240" role="img" aria-labelledby="title">
  <title id="title">노란 고양이 펫 반짝이</title>
  <defs><linearGradient id="bg" x1="0" y1="0" x2="1" y2="1"><stop stop-color="#fffbea"/><stop offset="1" stop-color="#ffe4a8"/></linearGradient></defs>
  <circle cx="120" cy="120" r="108" fill="url(#bg)"/>
  <path d="M57 94l10-58 45 30m71 28-10-58-45 30" fill="#f2b94b" stroke="#d99433" stroke-width="5" stroke-linejoin="round"/>
  <path d="M69 65l5-17 17 12m80 5-5-17-17 12" fill="#ffd7c8"/>
  <circle cx="120" cy="132" r="72" fill="#ffd269" stroke="#d99433" stroke-width="5"/>
  <path d="M103 75l8 18m26-18-8 18" stroke="#d99433" stroke-width="7" stroke-linecap="round"/>
  <path d="M82 124q10-12 20 0m36 0q10-12 20 0" fill="none" stroke="#57412d" stroke-width="5" stroke-linecap="round"/>
  <path d="M113 142h14l-7 8z" fill="#e87e72"/>
  <path d="M120 150c-6 9-17 9-23 3m23-3c6 9 17 9 23 3" fill="none" stroke="#6f4d36" stroke-width="4" stroke-linecap="round"/>
  <path d="M62 144l40 5m-39 12 39-5m76-12-40 5m39 12-39-5" stroke="#9e7138" stroke-width="3" stroke-linecap="round"/>
  <circle cx="184" cy="67" r="7" fill="#fff"/><circle cx="196" cy="84" r="4" fill="#fff"/>
</svg>
